<?xml version="1.0" standalone="no"?>
<!DOCTYPE svg PUBLIC "-//W3C//DTD SVG 20010904//EN"
 "http://www.w3.org/TR/2001/REC-SVG-20010904/DTD/svg10.dtd">
<svg version="1.0" xmlns="http://www.w3.org/2000/svg"
 width="1000.000000pt" height="125.000000pt" viewBox="0 0 1000.000000 125.000000"
 preserveAspectRatio="xMidYMid meet">
<metadata>
Created by potrace 1.16, written by Peter Selinger 2001-2019
</metadata>
<g transform="translate(0.000000,125.000000) scale(0.100000,-0.100000)"
fill="#cc5552" stroke="none">
<path d="M216 1143 c-3 -16 -28 -192 -56 -393 -28 -201 -55 -392 -60 -426 -6
-33 -10 -73 -10 -87 l0 -27 109 0 109 0 6 58 c4 31 9 69 12 84 6 28 5 28 -45
28 -28 0 -51 4 -51 8 0 8 47 353 71 520 l12 82 52 0 52 0 7 73 c4 39 9 80 12
90 5 15 -5 17 -105 17 l-109 0 -6 -27z"/>
<path d="M690 1161 c0 -5 -11 -12 -24 -15 -36 -9 -63 -75 -81 -201 -8 -60 -20
-125 -26 -143 -12 -36 -44 -75 -70 -85 -12 -4 -18 -21 -20 -56 -2 -28 0 -51 5
-51 5 0 20 -12 33 -27 25 -26 25 -28 18 -148 -10 -182 14 -243 101 -253 42 -4
43 -4 48 29 15 103 15 109 -2 109 -35 0 -44 35 -36 154 7 124 -3 181 -37 191
-22 7 -26 25 -4 25 8 0 15 5 15 10 0 6 7 10 16 10 19 0 40 50 49 120 11 91 33
147 59 154 19 5 25 15 30 51 3 25 9 65 12 90 l6 45 -46 0 c-25 0 -46 -4 -46
-9z"/>
<path d="M886 1148 c-5 -23 -89 -622 -102 -726 l-7 -53 74 3 73 3 18 125 c9
69 26 195 38 280 11 85 23 167 26 183 l6 27 105 0 106 0 -7 -65 c-10 -98 -7
-95 -95 -95 -42 0 -81 -4 -88 -8 -13 -8 -32 -81 -33 -124 l0 -28 110 0 c107 0
110 -1 110 -22 -1 -66 -3 -68 -114 -68 l-101 0 -17 -32 c-9 -18 -21 -66 -26
-106 l-8 -72 165 0 c91 0 171 4 177 8 15 10 30 79 55 256 26 184 23 196 -51
196 -27 0 -50 2 -50 5 0 2 15 20 33 38 17 19 42 54 55 79 24 49 39 150 28 192
l-6 26 -235 0 -235 0 -4 -22z"/>
<path d="M1550 1146 c0 -13 -3 -44 -6 -70 -6 -42 -5 -46 14 -46 29 0 33 -21
30 -167 -2 -112 0 -132 17 -158 11 -16 24 -33 30 -37 6 -5 5 -8 -4 -8 -19 0
-59 -49 -70 -85 -5 -16 -12 -54 -16 -84 -7 -63 -29 -121 -45 -121 -25 0 -37
-29 -46 -109 l-10 -83 58 4 c43 3 62 9 72 24 36 48 56 107 70 209 20 142 39
192 77 200 21 5 29 13 29 28 0 12 3 38 6 58 6 33 4 37 -19 43 -42 10 -52 52
-38 168 10 80 10 110 0 149 -14 52 -40 89 -64 89 -8 0 -15 5 -15 10 0 6 -16
10 -35 10 -30 0 -35 -3 -35 -24z"/>
<path d="M1926 1148 c-3 -13 -8 -45 -11 -73 -3 -27 -8 -58 -11 -67 -5 -16 2
-18 45 -18 58 0 57 2 41 -94 -11 -70 -70 -495 -70 -508 0 -4 -22 -8 -49 -8
-28 0 -52 -3 -54 -7 -3 -5 -8 -43 -12 -86 l-7 -78 108 3 108 3 18 130 c44 314
108 772 113 798 l5 27 -110 0 c-106 0 -110 -1 -114 -22z"/>
<path d="M2476 1148 c-5 -23 -89 -622 -102 -726 l-7 -53 74 3 73 3 18 125 c9
69 26 195 38 280 11 85 23 167 26 183 l6 27 105 0 106 0 -7 -65 c-10 -98 -7
-95 -95 -95 -42 0 -81 -4 -88 -8 -13 -8 -32 -81 -33 -124 l0 -28 110 0 c107 0
110 -1 110 -22 -1 -66 -3 -68 -114 -68 l-101 0 -17 -32 c-9 -18 -21 -66 -26
-106 l-8 -72 165 0 c91 0 171 4 177 8 15 10 30 79 55 256 26 184 23 196 -51
196 -27 0 -50 2 -50 5 0 2 15 20 33 38 17 19 42 54 55 79 24 49 39 150 28 192
l-6 26 -235 0 -235 0 -4 -22z"/>
<path d="M3116 1148 c-5 -23 -89 -622 -102 -726 l-7 -53 74 3 73 3 18 130 c10
72 30 210 43 308 14 98 25 182 25 188 0 5 56 9 131 9 l131 0 -7 -47 c-14 -100
-5 -93 -112 -93 -123 0 -135 -12 -149 -145 l-7 -65 166 0 c131 0 169 3 180 14
8 9 22 63 31 128 9 62 24 159 33 216 13 86 14 107 3 127 l-13 25 -253 0 -254
0 -4 -22z"/>
<path d="M3900 1160 c0 -5 -8 -10 -18 -10 -11 0 -29 -9 -42 -20 -13 -11 -26
-20 -30 -20 -12 0 -68 -122 -79 -171 -11 -50 -81 -526 -81 -553 0 -15 10 -16
72 -14 l72 3 12 80 c7 44 22 152 33 240 30 224 51 295 87 295 8 0 14 5 14 10
0 6 31 10 74 10 84 0 78 -6 91 103 l7 57 -106 0 c-64 0 -106 -4 -106 -10z"/>
<path d="M4136 1143 c-2 -16 -12 -83 -22 -150 l-17 -123 -89 0 c-66 0 -93 -4
-104 -15 -15 -14 -33 -108 -34 -167 l0 -28 100 0 100 0 -5 -27 c-9 -49 -35
-240 -35 -252 0 -7 26 -11 73 -11 l74 0 22 162 c50 363 81 584 86 611 l5 27
-74 0 c-73 0 -74 0 -80 -27z"/>
<path d="M4413 1155 c-16 -18 -19 -30 -53 -265 -17 -113 -33 -220 -36 -237
l-6 -33 76 0 c42 0 76 3 76 8 0 4 12 84 25 177 14 94 25 173 25 178 0 4 80 7
179 7 l178 0 7 70 c12 119 30 110 -232 110 -180 -1 -230 -4 -239 -15z"/>
<path d="M4996 1148 c-5 -23 -89 -622 -102 -726 l-7 -53 74 3 73 3 33 230 c67
481 73 523 73 544 0 19 -5 21 -70 21 -64 0 -70 -2 -74 -22z"/>
<path d="M5326 1049 c-23 -154 -34 -169 -129 -169 -63 0 -66 -1 -71 -27 -6
-27 -25 -161 -26 -175 0 -4 33 -8 72 -10 69 -3 73 -4 82 -30 9 -25 -1 -141
-20 -241 l-6 -27 76 0 c50 0 76 4 76 11 0 6 7 59 16 118 17 115 14 189 -11
223 -18 27 -20 48 -2 48 19 0 53 59 65 115 6 28 16 88 22 135 6 47 13 100 16
118 l5 32 -74 0 -73 0 -18 -121z"/>
<path d="M5606 1148 c-3 -13 -8 -43 -11 -68 -3 -25 -19 -135 -36 -245 -16
-110 -29 -203 -29 -207 0 -5 33 -8 74 -8 l74 0 12 88 c7 48 17 123 24 167 l12
80 156 3 155 2 12 78 c7 42 14 89 17 105 l6 27 -231 0 -231 0 -4 -22z"/>
<path d="M6176 1153 c-3 -10 -8 -40 -11 -68 -3 -27 -8 -60 -11 -72 l-4 -23
249 0 249 0 11 33 c5 17 13 58 17 90 l6 57 -250 0 c-230 0 -251 -1 -256 -17z"/>
<path d="M7016 1148 c-5 -23 -89 -622 -102 -726 l-7 -53 74 3 73 3 18 125 c9
69 26 195 38 280 11 85 23 167 26 183 l6 27 105 0 106 0 -7 -65 c-10 -98 -7
-95 -95 -95 -42 0 -81 -4 -88 -8 -13 -8 -32 -81 -33 -124 l0 -28 110 0 c107 0
110 -1 110 -22 -1 -66 -3 -68 -114 -68 l-101 0 -17 -32 c-9 -18 -21 -66 -26
-106 l-8 -72 165 0 c91 0 171 4 177 8 15 10 30 79 55 256 26 184 23 196 -51
196 -27 0 -50 2 -50 5 0 2 15 20 33 38 17 19 42 54 55 79 24 49 39 150 28 192
l-6 26 -235 0 -235 0 -4 -22z"/>
<path d="M7656 1148 c-5 -23 -89 -622 -102 -726 l-7 -53 74 3 73 3 33 230 c67
481 73 523 73 544 0 19 -5 21 -70 21 -64 0 -70 -2 -74 -22z"/>
<path d="M8246 1148 c-5 -23 -89 -622 -102 -726 l-7 -53 74 3 73 3 33 230 c67
481 73 523 73 544 0 19 -5 21 -70 21 -64 0 -70 -2 -74 -22z"/>
<path d="M8506 1153 c-3 -10 -8 -40 -11 -68 -3 -27 -8 -60 -11 -72 l-4 -23
249 0 249 0 11 33 c5 17 13 58 17 90 l6 57 -250 0 c-230 0 -251 -1 -256 -17z"/>
<path d="M9134 1157 c-17 -20 -33 -73 -40 -137 l-7 -60 112 0 c63 0 111 4 111
9 0 6 19 49 42 98 24 48 44 91 46 96 6 13 -252 8 -264 -6z"/>
<path d="M9343 988 c-50 -101 -137 -277 -193 -393 -57 -116 -105 -213 -107
-217 -2 -5 37 -8 87 -8 78 0 91 3 96 18 3 9 10 25 15 34 5 10 14 27 19 38 6
11 15 29 20 40 6 11 14 28 19 38 45 86 191 389 191 397 0 6 9 21 20 35 11 14
20 32 20 40 0 8 9 26 20 40 11 14 20 32 20 40 0 8 9 26 20 40 11 14 20 28 20
33 0 4 -40 7 -88 7 l-88 0 -91 -182z"/>
<path d="M6311 783 c-13 -93 -31 -222 -40 -288 l-17 -120 69 -3 c38 -2 71 -1
73 1 6 6 20 96 49 312 14 105 28 207 31 228 l6 37 -74 0 -74 0 -23 -167z"/>
<path d="M8641 783 c-13 -93 -31 -222 -40 -288 l-17 -120 69 -3 c38 -2 71 -1
73 1 6 6 20 96 49 312 14 105 28 207 31 228 l6 37 -74 0 -74 0 -23 -167z"/>
<path d="M5751 854 c-7 -9 -19 -56 -26 -105 l-12 -89 126 0 c69 0 131 4 138 8
6 4 17 39 23 77 6 39 13 82 15 98 l5 27 -128 0 c-102 -1 -130 -4 -141 -16z"/>
<path d="M3350 597 c0 -46 21 -191 31 -209 8 -15 22 -18 76 -18 l66 0 -7 78
c-4 42 -9 98 -13 125 l-6 47 -73 0 c-70 0 -74 -1 -74 -23z"/>
<path d="M4332 565 c-20 -23 -31 -60 -38 -130 l-7 -65 234 0 c129 0 239 4 246
8 19 12 31 54 39 131 l7 71 -234 0 c-190 -1 -236 -3 -247 -15z"/>
<path d="M5542 565 c-20 -23 -31 -60 -38 -130 l-7 -65 222 0 222 0 13 33 c8
17 17 59 21 91 4 33 9 65 12 73 8 20 -427 18 -445 -2z"/>
<path d="M7772 565 c-20 -23 -29 -55 -36 -127 l-8 -68 144 0 c79 0 149 4 157
9 14 9 40 121 41 174 l0 27 -142 0 c-111 -1 -146 -4 -156 -15z"/>
<path d="M9340 568 c0 -7 -20 -53 -44 -103 l-44 -90 117 -3 c64 -1 125 0 137
2 17 5 24 20 37 81 10 42 17 87 17 100 l0 25 -110 0 c-81 0 -110 -3 -110 -12z"/>
</g>
</svg>
