<?xml version="1.0" standalone="no"?>
<!DOCTYPE svg PUBLIC "-//W3C//DTD SVG 20010904//EN"
 "http://www.w3.org/TR/2001/REC-SVG-20010904/DTD/svg10.dtd">
<svg version="1.0" xmlns="http://www.w3.org/2000/svg"
 width="77.000000pt" height="38.500000pt" viewBox="0 0 222.000000 110.000000"
 preserveAspectRatio="xMidYMid meet">
<metadata>
Created by potrace 1.16, written by Peter Selinger 2001-2019
</metadata>
<g transform="translate(0.000000,110.000000) scale(0.100000,-0.100000)"
fill="#9c7c90" stroke="none">
<path d="M216 993 c-3 -16 -28 -192 -56 -393 -28 -201 -55 -392 -60 -426 -6
-33 -10 -73 -10 -87 l0 -27 109 0 109 0 6 58 c4 31 9 69 12 84 6 28 5 28 -45
28 -28 0 -51 4 -51 8 0 8 47 353 71 520 l12 82 52 0 52 0 7 73 c4 39 9 80 12
90 5 15 -5 17 -105 17 l-109 0 -6 -27z"/>
<path d="M690 1011 c0 -5 -11 -12 -24 -15 -36 -9 -63 -75 -81 -201 -8 -60 -20
-125 -26 -143 -12 -36 -44 -75 -70 -85 -12 -4 -18 -21 -20 -56 -2 -28 0 -51 5
-51 5 0 20 -12 33 -27 25 -26 25 -28 18 -148 -10 -182 14 -243 101 -253 42 -4
43 -4 48 29 15 103 15 109 -2 109 -35 0 -44 35 -36 154 7 124 -3 181 -37 191
-22 7 -26 25 -4 25 8 0 15 5 15 10 0 6 7 10 16 10 19 0 40 50 49 120 11 91 33
147 59 154 19 5 25 15 30 51 3 25 9 65 12 90 l6 45 -46 0 c-25 0 -46 -4 -46
-9z"/>
<path d="M886 998 c-5 -23 -89 -622 -102 -726 l-7 -53 74 3 73 3 18 125 c9 69
26 195 38 280 11 85 23 167 26 183 l6 27 105 0 106 0 -7 -65 c-10 -98 -7 -95
-95 -95 -42 0 -81 -4 -88 -8 -13 -8 -32 -81 -33 -124 l0 -28 110 0 c107 0 110
-1 110 -22 -1 -66 -3 -68 -114 -68 l-101 0 -17 -32 c-9 -18 -21 -66 -26 -106
l-8 -72 165 0 c91 0 171 4 177 8 15 10 30 79 55 256 26 184 23 196 -51 196
-27 0 -50 2 -50 5 0 2 15 20 33 38 17 19 42 54 55 79 24 49 39 150 28 192 l-6
26 -235 0 -235 0 -4 -22z"/>
<path d="M1550 996 c0 -13 -3 -44 -6 -70 -6 -42 -5 -46 14 -46 29 0 33 -21 30
-167 -2 -112 0 -132 17 -158 11 -16 24 -33 30 -37 6 -5 5 -8 -4 -8 -19 0 -59
-49 -70 -85 -5 -16 -12 -54 -16 -84 -7 -63 -29 -121 -45 -121 -25 0 -37 -29
-46 -109 l-10 -83 58 4 c43 3 62 9 72 24 36 48 56 107 70 209 20 142 39 192
77 200 21 5 29 13 29 28 0 12 3 38 6 58 6 33 4 37 -19 43 -42 10 -52 52 -38
168 10 80 10 110 0 149 -14 52 -40 89 -64 89 -8 0 -15 5 -15 10 0 6 -16 10
-35 10 -30 0 -35 -3 -35 -24z"/>
<path d="M1926 998 c-3 -13 -8 -45 -11 -73 -3 -27 -8 -58 -11 -67 -5 -16 2
-18 45 -18 58 0 57 2 41 -94 -11 -70 -70 -495 -70 -508 0 -4 -22 -8 -49 -8
-28 0 -52 -3 -54 -7 -3 -5 -8 -43 -12 -86 l-7 -78 108 3 108 3 18 130 c44 314
108 772 113 798 l5 27 -110 0 c-106 0 -110 -1 -114 -22z"/>
</g>
</svg>
